<svg width="1200" height="630" viewBox="0 0 1200 630" fill="none" xmlns="http://www.w3.org/2000/svg">
<g clip-path="url(#clip0_2486_26)">
<path d="M1200 0H0V630H1200V0Z" fill="url(#paint0_radial_2486_26)"/>
<path opacity="0.12" d="M200 0H320L180 630H60L200 0Z" fill="white"/>
<path opacity="0.09" d="M420 0H480L360 630H300L420 0Z" fill="white"/>
<path opacity="0.12" d="M700 0H740L660 630H620L700 0Z" fill="white"/>
<path opacity="0.09" d="M880 0H940L840 630H780L880 0Z" fill="white"/>
<path opacity="0.08" d="M1050 0H1100L1020 630H970L1050 0Z" fill="white"/>
<path opacity="0.7" d="M240.889 656C227.556 609.333 229.222 569.333 245.889 536C262.556 502.667 264.222 466 250.889 426C237.556 386 239.222 346 255.889 306" stroke="#2A4A3A" stroke-width="7" stroke-linecap="round"/>
<path opacity="0.5" d="M255.889 306C269.222 279.333 270.889 249.333 260.889 216" stroke="#2A4A3A" stroke-width="5" stroke-linecap="round"/>
<path opacity="0.6" d="M268.889 656C288.889 616 292.222 579.333 278.889 546C265.556 512.667 267.222 479.333 283.889 446C300.556 412.667 302.222 376 288.889 336" stroke="#1E3A2E" stroke-width="5" stroke-linecap="round"/>
<path opacity="0.6" d="M949 630C962.333 576.667 960.667 530 944 490C927.333 450 925.667 410 939 370C952.333 330 950.667 290 934 250" stroke="#2A4A3A" stroke-width="7" stroke-linecap="round"/>
<path opacity="0.5" d="M921 630C901 583.333 897.667 540 911 500C924.333 460 922.667 420 906 380" stroke="#1E3A2E" stroke-width="5" stroke-linecap="round"/>
<path opacity="0.8" d="M600 660C986.599 660 1300 642.091 1300 620C1300 597.909 986.599 580 600 580C213.401 580 -100 597.909 -100 620C-100 642.091 213.401 660 600 660Z" fill="#0D1520"/>
<path opacity="0.6" d="M600 646C931.371 646 1200 633.464 1200 618C1200 602.536 931.371 590 600 590C268.629 590 0 602.536 0 618C0 633.464 268.629 646 600 646Z" fill="#0A1118"/>
<path opacity="0.9" d="M220 628C229.941 628 238 624.418 238 620C238 615.582 229.941 612 220 612C210.059 612 202 615.582 202 620C202 624.418 210.059 628 220 628Z" fill="#1A2535"/>
<path opacity="0.8" d="M270 630C276.627 630 282 627.314 282 624C282 620.686 276.627 618 270 618C263.373 618 258 620.686 258 624C258 627.314 263.373 630 270 630Z" fill="#1E2D40"/>
<path opacity="0.9" d="M870 629C878.837 629 886 625.866 886 622C886 618.134 878.837 615 870 615C861.163 615 854 618.134 854 622C854 625.866 861.163 629 870 629Z" fill="#1A2535"/>
<path opacity="0.7" d="M920 623C925.523 623 930 620.761 930 618C930 615.239 925.523 613 920 613C914.477 613 910 615.239 910 618C910 620.761 914.477 623 920 623Z" fill="#1E2D40"/>
<path d="M375 480C377.761 480 380 477.761 380 475C380 472.239 377.761 470 375 470C372.239 470 370 472.239 370 475C370 477.761 372.239 480 375 480Z" stroke="white" stroke-opacity="0.22"/>
<path d="M387 408C388.657 408 390 406.657 390 405C390 403.343 388.657 402 387 402C385.343 402 384 403.343 384 405C384 406.657 385.343 408 387 408Z" stroke="white" stroke-opacity="0.18"/>
<path d="M373 339C375.209 339 377 337.209 377 335C377 332.791 375.209 331 373 331C370.791 331 369 332.791 369 335C369 337.209 370.791 339 373 339Z" stroke="white" stroke-opacity="0.15"/>
<path d="M823 421C825.209 421 827 419.209 827 417C827 414.791 825.209 413 823 413C820.791 413 819 414.791 819 417C819 419.209 820.791 421 823 421Z" stroke="white" stroke-opacity="0.2"/>
<path d="M835 343C838.314 343 841 340.314 841 337C841 333.686 838.314 331 835 331C831.686 331 829 333.686 829 337C829 340.314 831.686 343 835 343Z" stroke="white" stroke-opacity="0.15"/>
<path d="M580 93C581.657 93 583 91.6569 583 90C583 88.3431 581.657 87 580 87C578.343 87 577 88.3431 577 90C577 91.6569 578.343 93 580 93Z" stroke="white" stroke-opacity="0.1"/>
<path d="M620 60C622.761 60 625 57.7614 625 55C625 52.2386 622.761 50 620 50C617.239 50 615 52.2386 615 55C615 57.7614 617.239 60 620 60Z" stroke="white" stroke-opacity="0.08"/>
</g>
<defs>
<radialGradient id="paint0_radial_2486_26" cx="0" cy="0" r="1" gradientUnits="userSpaceOnUse" gradientTransform="translate(48000 37800) scale(96000 50400)">
<stop stop-color="#1A2744"/>
<stop offset="0.6" stop-color="#111827"/>
<stop offset="1" stop-color="#0A0F1A"/>
</radialGradient>
<clipPath id="clip0_2486_26">
<rect width="1200" height="630" fill="white"/>
</clipPath>
</defs>
</svg>
