<svg width="1000" height="1000" viewBox="0 0 1000 1000" fill="none" xmlns="http://www.w3.org/2000/svg">
<g clip-path="url(#clip0_2484_26)">
<circle cx="500" cy="500" r="500" fill="#18181B"/>
<path d="M343.856 597.776C334.27 597.776 326.04 594.387 319.165 587.609C312.387 580.735 308.998 572.504 308.998 562.918C308.998 553.429 312.387 545.296 319.165 538.518C326.04 531.74 334.27 528.351 343.856 528.351C353.152 528.351 361.285 531.74 368.257 538.518C375.228 545.296 378.714 553.429 378.714 562.918C378.714 569.309 377.068 575.167 373.776 580.493C370.581 585.721 366.369 589.933 361.14 593.129C355.911 596.227 350.15 597.776 343.856 597.776ZM343.856 441.496C334.27 441.496 326.04 438.107 319.165 431.33C312.387 424.552 308.998 416.321 308.998 406.638C308.998 397.149 312.387 389.064 319.165 382.383C326.04 375.605 334.27 372.216 343.856 372.216C353.152 372.216 361.285 375.605 368.257 382.383C375.228 389.064 378.714 397.149 378.714 406.638C378.714 413.126 377.068 419.032 373.776 424.358C370.581 429.587 366.369 433.75 361.14 436.849C355.911 439.947 350.15 441.496 343.856 441.496ZM576.932 677.659V558.271H575.044C572.139 564.468 568.024 570.616 562.699 576.716C557.47 582.72 550.644 587.706 542.22 591.676C533.893 595.646 523.726 597.631 511.719 597.631C494.774 597.631 479.427 593.274 465.677 584.559C452.025 575.748 441.18 562.821 433.143 545.78C425.204 528.641 421.234 507.63 421.234 482.745C421.234 457.183 425.349 435.929 433.579 418.984C441.809 401.942 452.751 389.21 466.404 380.786C480.153 372.265 495.21 368.004 511.574 368.004C524.065 368.004 534.474 370.134 542.801 374.395C551.225 378.558 558.003 383.787 563.135 390.081C568.363 396.278 572.333 402.378 575.044 408.381H577.659V370.909H638.66V677.659H576.932ZM531.327 548.394C541.3 548.394 549.724 545.683 556.599 540.261C563.57 534.741 568.896 527.044 572.575 517.167C576.351 507.291 578.24 495.72 578.24 482.455C578.24 469.189 576.4 457.667 572.72 447.887C569.041 438.107 563.715 430.555 556.744 425.229C549.772 419.904 541.3 417.241 531.327 417.241C521.16 417.241 512.59 420.001 505.619 425.52C498.647 431.039 493.37 438.688 489.788 448.468C486.205 458.248 484.414 469.576 484.414 482.455C484.414 495.429 486.205 506.904 489.788 516.877C493.467 526.753 498.744 534.499 505.619 540.115C512.59 545.635 521.16 548.394 531.327 548.394Z" fill="#A78BFA"/>
</g>
<defs>
<clipPath id="clip0_2484_26">
<rect width="1000" height="1000" fill="white"/>
</clipPath>
</defs>
</svg>
