<svg width="1000" height="1000" viewBox="0 0 1000 1000" fill="none" xmlns="http://www.w3.org/2000/svg">
<rect width="1000" height="1000" fill="#18181B"/>
<path d="M500.856 606.776C491.27 606.776 483.04 603.387 476.165 596.609C469.387 589.735 465.998 581.504 465.998 571.918C465.998 562.429 469.387 554.296 476.165 547.518C483.04 540.74 491.27 537.351 500.856 537.351C510.152 537.351 518.285 540.74 525.257 547.518C532.228 554.296 535.714 562.429 535.714 571.918C535.714 578.309 534.068 584.167 530.776 589.493C527.581 594.721 523.369 598.933 518.14 602.129C512.911 605.227 507.15 606.776 500.856 606.776ZM500.856 450.496C491.27 450.496 483.04 447.107 476.165 440.33C469.387 433.552 465.998 425.321 465.998 415.638C465.998 406.149 469.387 398.064 476.165 391.383C483.04 384.605 491.27 381.216 500.856 381.216C510.152 381.216 518.285 384.605 525.257 391.383C532.228 398.064 535.714 406.149 535.714 415.638C535.714 422.126 534.068 428.032 530.776 433.358C527.581 438.587 523.369 442.75 518.14 445.849C512.911 448.947 507.15 450.496 500.856 450.496Z" fill="#A78BFA"/>
</svg>
