<svg width="1000" height="1000" viewBox="0 0 1000 1000" fill="none" xmlns="http://www.w3.org/2000/svg">
<rect width="1000" height="1000" fill="#18181B"/>
<path d="M224.31 323.525L167.665 327.011C166.697 322.169 164.615 317.812 161.42 313.939C158.225 309.969 154.013 306.822 148.784 304.498C143.652 302.078 137.504 300.867 130.338 300.867C120.752 300.867 112.667 302.901 106.083 306.967C99.4988 310.937 96.2067 316.263 96.2067 322.944C96.2067 328.269 98.3369 332.772 102.597 336.451C106.858 340.131 114.168 343.084 124.529 345.311L164.906 353.445C186.595 357.899 202.766 365.064 213.417 374.94C224.068 384.817 229.393 397.792 229.393 413.865C229.393 428.486 225.084 441.316 216.467 452.354C207.946 463.392 196.23 472.01 181.318 478.207C166.504 484.307 149.413 487.357 130.048 487.357C100.516 487.357 76.9864 481.209 59.4606 468.912C42.0316 456.518 31.8163 439.67 28.8146 418.368L89.6708 415.172C91.5105 424.177 95.9646 431.052 103.033 435.797C110.101 440.444 119.155 442.768 130.193 442.768C141.038 442.768 149.752 440.686 156.337 436.523C163.018 432.262 166.407 426.792 166.504 420.11C166.407 414.494 164.034 409.895 159.387 406.312C154.739 402.633 147.574 399.825 137.891 397.888L99.2568 390.191C77.4705 385.833 61.2519 378.281 50.6009 367.533C40.0466 356.785 34.7695 343.084 34.7695 326.43C34.7695 312.099 38.6426 299.754 46.3889 289.393C54.2319 279.033 65.2218 271.044 79.3587 265.428C93.5923 259.812 110.247 257.004 129.322 257.004C157.499 257.004 179.672 262.959 195.842 274.869C212.109 286.779 221.598 302.997 224.31 323.525ZM330.227 354.026V483H268.354V185.545H328.484V299.27H331.098C336.133 286.101 344.267 275.789 355.499 268.333C366.731 260.781 380.819 257.004 397.764 257.004C413.257 257.004 426.764 260.393 438.287 267.171C449.906 273.852 458.911 283.487 465.302 296.074C471.789 308.565 474.984 323.525 474.888 340.954V483H413.015V351.992C413.111 338.243 409.626 327.543 402.557 319.894C395.586 312.244 385.806 308.42 373.218 308.42C364.794 308.42 357.339 310.211 350.851 313.794C344.461 317.376 339.426 322.605 335.746 329.48C332.164 336.258 330.324 344.44 330.227 354.026ZM523.58 483V259.909H585.453V483H523.58ZM554.661 231.151C545.463 231.151 537.571 228.101 530.987 222.001C524.5 215.804 521.256 208.397 521.256 199.779C521.256 191.258 524.5 183.948 530.987 177.848C537.571 171.651 545.463 168.552 554.661 168.552C563.86 168.552 571.703 171.651 578.191 177.848C584.775 183.948 588.067 191.258 588.067 199.779C588.067 208.397 584.775 215.804 578.191 222.001C571.703 228.101 563.86 231.151 554.661 231.151ZM691.079 418.803L691.225 344.585H700.23L771.688 259.909H842.712L746.707 372.036H732.038L691.079 418.803ZM635.016 483V185.545H696.889V483H635.016ZM774.448 483L708.799 385.833L750.048 342.116L846.924 483H774.448ZM873.067 483V259.909H934.94V483H873.067ZM904.149 231.151C894.95 231.151 887.059 228.101 880.474 222.001C873.987 215.804 870.743 208.397 870.743 199.779C870.743 191.258 873.987 183.948 880.474 177.848C887.059 171.651 894.95 168.552 904.149 168.552C913.347 168.552 921.19 171.651 927.678 177.848C934.262 183.948 937.554 191.258 937.554 199.779C937.554 208.397 934.262 215.804 927.678 222.001C921.19 228.101 913.347 231.151 904.149 231.151ZM74.8562 842.776C65.2702 842.776 57.0399 839.387 50.1651 832.609C43.3872 825.735 39.9982 817.504 39.9982 807.918C39.9982 798.429 43.3872 790.296 50.1651 783.518C57.0399 776.74 65.2702 773.351 74.8562 773.351C84.1516 773.351 92.2852 776.74 99.2568 783.518C106.228 790.296 109.714 798.429 109.714 807.918C109.714 814.309 108.068 820.167 104.776 825.493C101.581 830.721 97.3686 834.933 92.1399 838.129C86.9112 841.227 81.15 842.776 74.8562 842.776ZM74.8562 686.496C65.2702 686.496 57.0399 683.107 50.1651 676.33C43.3872 669.552 39.9982 661.321 39.9982 651.638C39.9982 642.149 43.3872 634.064 50.1651 627.383C57.0399 620.605 65.2702 617.216 74.8562 617.216C84.1516 617.216 92.2852 620.605 99.2568 627.383C106.228 634.064 109.714 642.149 109.714 651.638C109.714 658.126 108.068 664.032 104.776 669.358C101.581 674.587 97.3686 678.75 92.1399 681.849C86.9112 684.947 81.15 686.496 74.8562 686.496ZM368.498 615.909L290.503 839H220.788L142.793 615.909H208.152L254.484 775.529H256.807L302.994 615.909H368.498ZM400.161 839V615.909H462.034V839H400.161ZM431.242 587.151C422.044 587.151 414.152 584.101 407.568 578.001C401.081 571.804 397.837 564.397 397.837 555.779C397.837 547.258 401.081 539.948 407.568 533.848C414.152 527.651 422.044 524.552 431.242 524.552C440.441 524.552 448.284 527.651 454.772 533.848C461.356 539.948 464.648 547.258 464.648 555.779C464.648 564.397 461.356 571.804 454.772 578.001C448.284 584.101 440.441 587.151 431.242 587.151ZM511.597 839V615.909H570.565V655.27H573.18C577.827 642.198 585.574 631.886 596.418 624.333C607.263 616.781 620.238 613.004 635.343 613.004C650.642 613.004 663.665 616.829 674.413 624.478C685.161 632.031 692.326 642.295 695.909 655.27H698.233C702.784 642.488 711.014 632.273 722.924 624.624C734.93 616.877 749.116 613.004 765.479 613.004C786.297 613.004 803.194 619.637 816.169 632.902C829.24 646.071 835.776 664.759 835.776 688.966V839H774.049V701.166C774.049 688.772 770.757 679.476 764.172 673.279C757.588 667.083 749.358 663.984 739.481 663.984C728.249 663.984 719.486 667.567 713.192 674.732C706.899 681.8 703.752 691.144 703.752 702.763V839H643.767V699.859C643.767 688.917 640.62 680.203 634.326 673.715C628.129 667.228 619.947 663.984 609.781 663.984C602.906 663.984 596.709 665.727 591.19 669.213C585.767 672.602 581.458 677.395 578.263 683.592C575.068 689.692 573.47 696.857 573.47 705.087V839H511.597Z" fill="white"/>
</svg>
